<svg fill="#000000" height="800px" width="800px" version="1.1" id="Icons" xmlns="http://www.w3.org/2000/svg" xmlns:xlink="http://www.w3.org/1999/xlink" 
	 viewBox="0 0 32 32" xml:space="preserve">
<g>
	<path d="M24.9,18.8c-2.7-2.7-5.8-3-8-0.7c-0.2,0.2-0.4,0.5-0.6,0.7c-1.1-1-2.1-2-3.1-3.1c0.3-0.2,0.5-0.4,0.7-0.6
		c2.2-2.2,2-5.3-0.7-8c-2.7-2.7-5.8-3-8-0.7c-2.3,2.3-2.7,6.5-0.9,9.3c3,4.5,7.5,9,12,12c1.2,0.8,2.6,1.2,4.1,1.2
		c1.9,0,3.9-0.7,5.2-2C27.9,24.5,27.6,21.5,24.9,18.8z"/>
	<path d="M18.3,12.7c0.2,0.2,0.5,0.3,0.7,0.3s0.5-0.1,0.7-0.3l2.3-2.3l2.3,2.3c0.2,0.2,0.5,0.3,0.7,0.3s0.5-0.1,0.7-0.3
		c0.4-0.4,0.4-1,0-1.4L23.4,9l2.3-2.3c0.4-0.4,0.4-1,0-1.4s-1-0.4-1.4,0L22,7.6l-2.3-2.3c-0.4-0.4-1-0.4-1.4,0s-0.4,1,0,1.4L20.6,9
		l-2.3,2.3C17.9,11.7,17.9,12.3,18.3,12.7z"/>
</g>
</svg>